<svg width="41" height="41" viewBox="0 0 41 41" fill="none" xmlns="http://www.w3.org/2000/svg">
<g clip-path="url(#clip0_394_4929)">
<path d="M33 27.0881V25.8381C33 25.5066 33.1317 25.1887 33.3661 24.9543C33.6005 24.7198 33.9185 24.5881 34.25 24.5881C34.5815 24.5881 34.8995 24.7198 35.1339 24.9543C35.3683 25.1887 35.5 25.5066 35.5 25.8381V38.3381H38V25.8381C37.9989 24.8439 37.6035 23.8907 36.9004 23.1877C36.1974 22.4847 35.2442 22.0892 34.25 22.0881C33.6039 22.0922 32.9701 22.2652 32.4115 22.5899C31.9055 21.7709 31.0996 21.1818 30.1656 20.9483C29.2317 20.7148 28.2434 20.8553 27.4115 21.3399C27.0754 20.8047 26.6091 20.3633 26.0563 20.057C25.5035 19.7506 24.882 19.5893 24.25 19.5881C23.8231 19.5924 23.4002 19.6704 23 19.8189V13.3381C23 12.3436 22.6049 11.3897 21.9017 10.6865C21.1984 9.98322 20.2446 9.58813 19.25 9.58813C18.2554 9.58813 17.3016 9.98322 16.5984 10.6865C15.8951 11.3897 15.5 12.3436 15.5 13.3381V27.2188L12.7064 25.3071L12.7054 25.3084C11.9419 24.7523 10.9967 24.505 10.0587 24.6157C9.12075 24.7265 8.25915 25.1872 7.64622 25.9058C7.03328 26.6244 6.71418 27.5479 6.75273 28.4916C6.79128 29.4353 7.18463 30.3297 7.85413 30.9959L15.9029 38.3381L17.5878 36.4906L9.61438 29.2176C9.49863 29.1023 9.40685 28.9652 9.34431 28.8143C9.28177 28.6633 9.24972 28.5015 9.25 28.3381C9.25005 28.106 9.3147 27.8785 9.43672 27.681C9.55873 27.4835 9.7333 27.3239 9.94088 27.22C10.1485 27.1161 10.3809 27.072 10.6121 27.0927C10.8433 27.1134 11.0642 27.198 11.25 27.3371L18 31.9575V13.3381C18 13.0066 18.1317 12.6887 18.3661 12.4543C18.6005 12.2198 18.9185 12.0881 19.25 12.0881C19.5815 12.0881 19.8995 12.2198 20.1339 12.4543C20.3683 12.6887 20.5 13.0066 20.5 13.3381V27.0881H23V23.3381C23 23.0066 23.1317 22.6887 23.3661 22.4543C23.6005 22.2198 23.9185 22.0881 24.25 22.0881C24.5815 22.0881 24.8995 22.2198 25.1339 22.4543C25.3683 22.6887 25.5 23.0066 25.5 23.3381V27.0881H28V24.5881C28 24.2566 28.1317 23.9387 28.3661 23.7043C28.6005 23.4698 28.9185 23.3381 29.25 23.3381C29.5815 23.3381 29.8995 23.4698 30.1339 23.7043C30.3683 23.9387 30.5 24.2566 30.5 24.5881V27.0881H33Z" fill="#292929"/>
<path d="M35.5 15.8381H28V13.3381H35.5V5.83813H5.5V13.3381H10.5V15.8381H5.5C4.83717 15.8374 4.20169 15.5738 3.733 15.1051C3.26431 14.6364 3.00069 14.001 3 13.3381V5.83813C3.00069 5.17531 3.26431 4.53983 3.733 4.07114C4.20169 3.60245 4.83717 3.33883 5.5 3.33813H35.5C36.1628 3.33883 36.7983 3.60245 37.267 4.07114C37.7357 4.53983 37.9993 5.17531 38 5.83813V13.3381C37.9993 14.001 37.7357 14.6364 37.267 15.1051C36.7983 15.5738 36.1628 15.8374 35.5 15.8381Z" fill="#292929"/>
</g>
<defs>
<clipPath id="clip0_394_4929">
<rect width="40" height="40" fill="white" transform="translate(0.5 0.838135)"/>
</clipPath>
</defs>
</svg>
