<svg width="40" height="41" viewBox="0 0 40 41" fill="none" xmlns="http://www.w3.org/2000/svg">
<g clip-path="url(#clip0_394_4906)">
<path d="M36.6667 40.8381H3.33333C1.495 40.8381 0 39.3431 0 37.5047V12.5047C0 10.6664 1.495 9.17139 3.33333 9.17139H20C20.46 9.17139 20.8333 9.54472 20.8333 10.0047C20.8333 10.4647 20.46 10.8381 20 10.8381H3.33333C2.41417 10.8381 1.66667 11.5856 1.66667 12.5047V37.5047C1.66667 38.4239 2.41417 39.1714 3.33333 39.1714H36.6667C37.5858 39.1714 38.3333 38.4239 38.3333 37.5047V12.5047C38.3333 11.5856 37.5858 10.8381 36.6667 10.8381C36.2067 10.8381 35.8333 10.4647 35.8333 10.0047C35.8333 9.54472 36.2067 9.17139 36.6667 9.17139C38.505 9.17139 40 10.6664 40 12.5047V37.5047C40 39.3431 38.505 40.8381 36.6667 40.8381Z" fill="#292929"/>
<path d="M36.6667 37.5049H8.33334V12.5049H16.6667C17.1267 12.5049 17.5 12.8782 17.5 13.3382C17.5 13.7982 17.1267 14.1715 16.6667 14.1715H10V35.8382H35V14.1715H33.3333C32.8733 14.1715 32.5 13.7982 32.5 13.3382C32.5 12.8782 32.8733 12.5049 33.3333 12.5049H36.6667V37.5049Z" fill="#292929"/>
<path d="M6.66667 35.8381H0V14.1714H6.66667V35.8381ZM1.66667 34.1714H5V15.8381H1.66667V34.1714Z" fill="#292929"/>
<path d="M14.5333 23.8048L16.7325 16.8906L31.7258 1.89812C32.985 0.638125 35.1808 0.638125 36.44 1.89812C37.74 3.19812 37.74 5.31229 36.44 6.61146L21.4475 21.6048L14.5333 23.8048ZM18.1983 17.7823L17.0983 21.239L20.555 20.139L35.2617 5.43396C35.9117 4.78396 35.9117 3.72729 35.2617 3.07729C34.6317 2.44729 33.5342 2.44729 32.9042 3.07729L18.1983 17.7823Z" fill="#292929"/>
<path d="M5.83333 20.8381H0.833328V22.5048H5.83333V20.8381Z" fill="#292929"/>
<path d="M5.83333 27.5049H0.833328V29.1715H5.83333V27.5049Z" fill="#292929"/>
<path d="M34.6717 8.03474C34.4583 8.03474 34.245 7.95307 34.0825 7.79057L30.5467 4.25474C30.2208 3.92891 30.2208 3.40224 30.5467 3.07641C30.8725 2.75057 31.3992 2.75057 31.725 3.07641L35.2608 6.61224C35.5867 6.93807 35.5867 7.46474 35.2608 7.79057C35.0983 7.95391 34.885 8.03474 34.6717 8.03474Z" fill="#292929"/>
<path d="M29.9583 12.7489C29.745 12.7489 29.5317 12.6672 29.3692 12.5047L25.8333 8.96885C25.5075 8.64302 25.5075 8.11635 25.8333 7.79052C26.1592 7.46468 26.6858 7.46468 27.0117 7.79052L30.5475 11.3264C30.8733 11.6522 30.8733 12.1789 30.5475 12.5047C30.3842 12.6672 30.1717 12.7489 29.9583 12.7489Z" fill="#292929"/>
<path d="M21.0017 21.7056C20.7883 21.7056 20.575 21.624 20.4125 21.4615L16.8767 17.9256C16.5508 17.5998 16.5508 17.0731 16.8767 16.7473C17.2025 16.4215 17.7292 16.4215 18.055 16.7473L21.5908 20.2831C21.9167 20.609 21.9167 21.1356 21.5908 21.4615C21.4275 21.624 21.215 21.7056 21.0017 21.7056Z" fill="#292929"/>
<path d="M14.1667 25.0048C13.9533 25.0048 13.74 24.9231 13.5775 24.7606C13.2517 24.4348 13.2517 23.9081 13.5775 23.5823L15.2267 21.9331C15.5525 21.6073 16.0792 21.6073 16.405 21.9331C16.7308 22.2589 16.7308 22.7856 16.405 23.1114L14.7558 24.7606C14.5933 24.9231 14.38 25.0048 14.1667 25.0048Z" fill="#292929"/>
</g>
<defs>
<clipPath id="clip0_394_4906">
<rect width="40" height="40" fill="white" transform="translate(0 0.838135)"/>
</clipPath>
</defs>
</svg>
